HIERARCHY
ROOT Hips
{
	OFFSET -3.958830 18.904000 13.208200
	CHANNELS 6 Xposition Yposition Zposition Zrotation Yrotation Xrotation 
	JOINT LHipJoint
	{
		OFFSET 0.000000 0.000000 0.000000
		CHANNELS 3 Zrotation Yrotation Xrotation
		JOINT LeftUpLeg
		{
			OFFSET 1.800000 -1.400000 0.085000
			CHANNELS 3 Zrotation Yrotation Xrotation
			JOINT LeftLeg
			{
				OFFSET 2.215000 -6.000000 0.000000
				CHANNELS 3 Zrotation Yrotation Xrotation
				JOINT LeftFoot
				{
					OFFSET 2.500000 -6.900000 0.000000
					CHANNELS 3 Zrotation Yrotation Xrotation
					JOINT LeftToeBase
					{
						OFFSET 0.200000 -0.500000 1.950000
						CHANNELS 3 Zrotation Yrotation Xrotation
						End Site
						{
							OFFSET 0.000000 0.000000 0.000000
						}
					}
				}
			}
		}
	}
	JOINT RHipJoint
	{
		OFFSET 0.000000 0.000000 0.000000
		CHANNELS 3 Zrotation Yrotation Xrotation
		JOINT RightUpLeg
		{
			OFFSET -1.800000 -1.400000 0.085000
			CHANNELS 3 Zrotation Yrotation Xrotation
			JOINT RightLeg
			{
				OFFSET -2.215000 -6.000000 0.000000
				CHANNELS 3 Zrotation Yrotation Xrotation
				JOINT RightFoot
				{
					OFFSET -2.500000 -6.900000 0.000000
					CHANNELS 3 Zrotation Yrotation Xrotation
					JOINT RightToeBase
					{
						OFFSET -0.200000 -0.500000 1.950000
						CHANNELS 3 Zrotation Yrotation Xrotation
						End Site
						{
							OFFSET 0.000000 0.000000 0.000000
						}
					}
				}
			}
		}
	}
	JOINT LowerBack
	{
		OFFSET 0.000000 0.000000 0.000000
		CHANNELS 3 Zrotation Yrotation Xrotation
		JOINT Spine
		{
			OFFSET -0.087000 1.940000 -0.288900
			CHANNELS 3 Zrotation Yrotation Xrotation
			JOINT Spine1
			{
				OFFSET 0.000000 1.950000 0.060000
				CHANNELS 3 Zrotation Yrotation Xrotation
				JOINT Neck
				{
					OFFSET 0.000000 0.000000 0.000000
					CHANNELS 3 Zrotation Yrotation Xrotation
					JOINT Neck1
					{
						OFFSET 0.000000 1.600000 0.340000
						CHANNELS 3 Zrotation Yrotation Xrotation
						JOINT Head
						{
							OFFSET 0.000000 1.667000 -0.240000
							CHANNELS 3 Zrotation Yrotation Xrotation
							End Site
							{
								OFFSET 0.000000 0.000000 0.000000
							}
						}
					}
				}
				JOINT LeftShoulder
				{
					OFFSET 0.000000 0.000000 0.000000
					CHANNELS 3 Zrotation Yrotation Xrotation
					JOINT LeftArm
					{
						OFFSET 2.700000 1.550000 -0.730000
						CHANNELS 3 Zrotation Yrotation Xrotation
						JOINT LeftForeArm
						{
							OFFSET 5.450000 0.000000 0.000000
							CHANNELS 3 Zrotation Yrotation Xrotation
							JOINT LeftHand
							{
								OFFSET 3.450000 0.000000 0.000000
								CHANNELS 3 Zrotation Yrotation Xrotation
								JOINT LeftHandIndex1
								{
									OFFSET 0.750000 0.000000 0.000000
									CHANNELS 3 Zrotation Yrotation Xrotation
									End Site
									{
										OFFSET 0.000000 0.000000 0.000000
									}
								}
							}
						}
					}
				}
				JOINT RightShoulder
				{
					OFFSET 0.000000 0.000000 0.000000
					CHANNELS 3 Zrotation Yrotation Xrotation
					JOINT RightArm
					{
						OFFSET -2.700000 1.550000 -0.730000
						CHANNELS 3 Zrotation Yrotation Xrotation
						JOINT RightForeArm
						{
							OFFSET -5.450000 0.000000 0.000000
							CHANNELS 3 Zrotation Yrotation Xrotation
							JOINT RightHand
							{
								OFFSET -3.450000 0.000000 0.000000
								CHANNELS 3 Zrotation Yrotation Xrotation
								JOINT RightHandIndex1
								{
									OFFSET -0.750000 0.000000 0.000000
									CHANNELS 3 Zrotation Yrotation Xrotation
									End Site
									{
										OFFSET 0.000000 0.000000 0.000000
									}
								}
							}
						}
					}
				}
			}
		}
	}
}
MOTION
Frames: 6
Frame Time: 0.016667
-0.023310 16.793490 -0.958410 -3.763042 -1.365815 8.944540 -15.231358 12.431028 3.508423 15.272189 -1.269056 -5.055785 -8.292396 3.576495 -7.067374 0.581647 4.255313 3.094273 -0.009930 -0.051060 0.292520 18.180933 -10.145245 3.042584 -15.109130 0.351888 -6.940417 7.537677 -3.060930 -3.387416 -0.171186 -3.799450 2.991350 -0.121740 -0.127030 -0.044770 -3.348593 -1.525176 -8.071818 6.575021 0.963334 -0.998862 -1.232712 0.615659 1.093897 2.868655 -0.745380 -15.006315 -4.199652 1.215177 39.620080 -1.960870 3.095570 7.449910 -8.964432 -8.816980 6.888549 4.125519 13.547035 -0.362421 3.409219 -1.532694 0.130571 -3.739862 2.978516 -0.043390 -0.049610 0.040910 -0.128680 3.938188 10.480041 11.158317 -1.450325 -11.745917 0.233169 -1.370427 2.816698 -0.279085 3.231006 -1.202657 0.025370 -0.216990 -0.204410 0.014040 
-0.022320 16.792070 -0.959300 -3.786987 -1.347568 8.970612 -15.229889 12.425437 3.510039 15.308151 -1.279127 -5.081248 -8.319197 3.575545 -7.089425 0.582261 4.264229 3.093816 -0.013430 -0.054070 0.287320 18.183837 -10.137577 3.043052 -15.106628 0.356315 -6.956559 7.606258 -3.062415 -3.406235 -0.168092 -3.806908 2.990682 -0.121630 -0.119810 -0.043500 -3.355519 -1.530754 -8.070116 6.643296 0.919312 -0.985108 -1.296495 0.577771 1.140530 2.858825 -0.757724 -14.988294 -4.182186 1.197696 39.351133 -2.007600 3.105370 7.524410 -8.954221 -8.808981 6.883450 4.238178 13.458929 -0.335961 3.219453 -1.147727 0.104895 -3.751612 2.975886 -0.048750 -0.043320 0.035500 -0.127070 3.931824 10.465810 11.156185 -1.375854 -11.699447 0.234282 -1.504357 2.837550 -0.279426 3.229226 -1.206349 0.023770 -0.216120 -0.202210 0.016020 
-0.020340 16.790300 -0.959610 -3.800517 -1.373508 9.013034 -15.229422 12.422093 3.509710 15.299813 -1.286637 -5.106772 -8.312535 3.569802 -7.109708 0.577375 4.270565 3.094870 -0.020870 -0.060910 0.278500 18.184758 -10.132236 3.047260 -15.116304 0.368559 -6.990461 7.651589 -3.057850 -3.453957 -0.163070 -3.815178 2.990383 -0.121460 -0.109340 -0.043500 -3.357483 -1.531587 -8.071260 6.660768 0.886961 -0.976728 -1.336910 0.551488 1.083431 2.862881 -0.746869 -14.958366 -4.117743 1.194071 39.153348 -2.107930 3.164000 7.651650 -8.967972 -8.765109 6.856000 4.354008 13.407088 -0.307308 3.161439 -0.830779 0.085769 -3.767002 2.969892 -0.053330 -0.034520 0.027630 -0.126000 3.924476 10.412392 11.137604 -1.285330 -11.588759 0.231330 -1.726804 2.806251 -0.277624 3.226417 -1.208273 0.018020 -0.212490 -0.196480 0.017000 
-0.018320 16.787120 -0.958640 -3.821375 -1.422983 9.089292 -15.230997 12.412751 3.514896 15.316217 -1.299448 -5.127387 -8.354452 3.561641 -7.173274 0.579079 4.280573 3.095968 -0.024070 -0.063390 0.275370 18.183452 -10.123695 3.053585 -15.145994 0.384706 -7.046631 7.745087 -3.051529 -3.513309 -0.160508 -3.824312 2.987343 -0.119950 -0.102040 -0.042350 -3.352984 -1.527013 -8.077864 6.637683 0.863508 -0.998156 -1.331998 0.527490 0.925819 2.885848 -0.719806 -14.920990 -4.022873 1.157218 38.981792 -2.290660 3.253280 7.803210 -8.963660 -8.698765 6.810567 4.493770 13.264983 -0.280682 2.968940 -0.377468 0.056715 -3.781866 2.964950 -0.059800 -0.027150 0.022630 -0.123340 3.867592 10.341729 11.108420 -1.218754 -11.470591 0.236029 -1.831146 2.832681 -0.283546 3.225960 -1.214454 0.015150 -0.211360 -0.196440 0.018840 
-0.016250 16.782120 -0.956670 -3.815144 -1.424214 9.151669 -15.237243 12.394508 3.513821 15.325599 -1.312608 -5.120582 -8.388658 3.551308 -7.248469 0.580066 4.295013 3.096596 -0.031390 -0.070070 0.267210 18.180580 -10.110017 3.061614 -15.208450 0.397255 -7.035912 7.840588 -3.044202 -3.644552 -0.156765 -3.850159 2.980290 -0.119700 -0.090200 -0.040680 -3.339727 -1.514622 -8.074392 6.492532 0.860012 -1.073916 -1.229332 0.498541 0.929412 2.900640 -0.656144 -14.887229 -3.831799 1.055439 38.627798 -2.519560 3.316590 8.044960 -8.855424 -8.663814 6.789625 4.557698 12.924705 -0.254682 2.533287 0.294129 0.003084 -3.806330 2.959098 -0.071040 -0.014700 0.011370 -0.122100 3.733506 10.260902 11.096801 -1.087487 -11.388070 0.246013 -1.839755 2.789972 -0.299835 3.223575 -1.222319 0.011590 -0.211470 -0.192200 0.020910 
-0.014290 16.777520 -0.954890 -3.825588 -1.349927 9.192457 -15.241505 12.377766 3.512102 15.364854 -1.327709 -5.134738 -8.423168 3.545788 -7.294736 0.587897 4.305722 3.097354 -0.038600 -0.075110 0.256160 18.179503 -10.100571 3.065514 -15.245581 0.397694 -7.002129 7.921201 -3.044767 -3.729516 -0.152554 -3.875366 2.975841 -0.121430 -0.078380 -0.036540 -3.332381 -1.501691 -8.068054 6.384406 0.850304 -1.154679 -1.163733 0.463666 1.008011 2.902923 -0.580501 -14.884628 -3.626144 0.924215 38.260731 -2.648850 3.286900 8.372730 -8.740662 -8.681468 6.805276 4.508984 12.606628 -0.250158 2.297460 0.788678 -0.026103 -3.828159 2.959392 -0.086460 -0.001870 0.001400 -0.118730 3.610033 10.213399 11.114252 -0.920643 -11.450867 0.252607 -1.819371 2.855517 -0.313143 3.221005 -1.232293 0.013360 -0.215010 -0.189730 0.026920 
